<?xml version="1.0" standalone="no"?>
<!DOCTYPE svg PUBLIC "-//W3C//DTD SVG 1.1//EN" "http://www.w3.org/Graphics/SVG/1.1/DTD/svg11.dtd">
<svg width="5040" height="14" viewBox="0 -11 5040 14" xmlns="http://www.w3.org/2000/svg" version="1.1">
<title>OpenSCAD Model</title>
<path d="
M 5036.66,2.84706 L 5037.01,2.74825 L 5037.32,2.58356 L 5037.57,2.353 L 5037.77,2.0643 L 5037.92,1.72424
 L 5038,1.33281 L 5038.03,0.889999 L 5038.03,-1.56099 L 5038.06,-1.93343 L 5038.12,-2.25574 L 5038.23,-2.52792
 L 5038.39,-2.75 L 5038.59,-2.92406 L 5038.84,-3.05225 L 5039.14,-3.13455 L 5039.5,-3.17099 L 5039.5,-4.032
 L 5039.15,-4.06824 L 5038.85,-4.14999 L 5038.59,-4.27724 L 5038.39,-4.45 L 5038.23,-4.67043 L 5038.12,-4.93974
 L 5038.06,-5.25793 L 5038.03,-5.625 L 5038.03,-8.06999 L 5038.01,-8.51855 L 5037.92,-8.91225 L 5037.78,-9.25105
 L 5037.59,-9.53499 L 5037.33,-9.75943 L 5037.03,-9.91974 L 5036.67,-10.0159 L 5036.25,-10.048 L 5035.37,-10.048
 L 5035.37,-9.17299 L 5035.77,-9.17299 L 5036.05,-9.15044 L 5036.29,-9.08275 L 5036.49,-8.96992 L 5036.64,-8.812
 L 5036.76,-8.60849 L 5036.84,-8.35899 L 5036.89,-8.06349 L 5036.91,-7.72198 L 5036.91,-5.31898 L 5036.93,-5.00436
 L 5037,-4.71449 L 5037.11,-4.44937 L 5037.27,-4.209 L 5037.47,-4.00105 L 5037.69,-3.83324 L 5037.94,-3.70555
 L 5038.22,-3.618 L 5038.22,-3.605 L 5037.93,-3.51662 L 5037.68,-3.3875 L 5037.45,-3.21762 L 5037.26,-3.00699
 L 5037.11,-2.76331 L 5037,-2.49425 L 5036.93,-2.1998 L 5036.91,-1.87999 L 5036.91,0.544998 L 5036.89,0.883118
 L 5036.84,1.17749 L 5036.76,1.42812 L 5036.64,1.63499 L 5036.49,1.79688 L 5036.29,1.91249 L 5036.05,1.98187
 L 5035.77,2.00499 L 5035.37,2.00499 L 5035.37,2.87999 L 5036.25,2.87999 z
M 484.832,-4.336 L 484.865,-4.81656 L 484.963,-5.24524 L 485.126,-5.62206 L 485.353,-5.94699 L 485.636,-6.20862
 L 485.961,-6.39549 L 486.329,-6.50761 L 486.74,-6.545 L 487.014,-6.53394 L 487.256,-6.50075 L 487.467,-6.44543
 L 487.646,-6.368 L 487.798,-6.26736 L 487.927,-6.14149 L 488.033,-5.99037 L 488.116,-5.814 L 488.179,-5.60062
 L 488.224,-5.33749 L 488.251,-5.02461 L 488.259,-4.66199 L 488.259,-0 L 489.486,-0 L 489.486,-4.89899
 L 489.451,-5.54861 L 489.344,-6.09749 L 489.167,-6.54562 L 488.918,-6.89299 L 488.595,-7.15331 L 488.193,-7.33925
 L 487.712,-7.45081 L 487.152,-7.48799 L 486.746,-7.46693 L 486.376,-7.40375 L 486.043,-7.29843 L 485.747,-7.15099
 L 485.48,-6.959 L 485.233,-6.71899 L 485.006,-6.431 L 484.798,-6.09499 L 484.777,-6.09499 L 484.798,-6.40417
 L 484.819,-6.81731 L 484.826,-7.03125 L 484.831,-7.24181 L 484.832,-7.44899 L 484.832,-10.048 L 483.611,-10.048
 L 483.611,-0 L 484.832,-0 z
M 560.222,-10.048 L 559.001,-10.048 L 559.001,-8.88199 L 560.222,-8.88199 z
M 590.349,-10.048 L 589.128,-10.048 L 589.128,-8.88199 L 590.349,-8.88199 z
M 371.974,-6.47198 L 373.391,-6.47198 L 373.391,-7.35999 L 371.974,-7.35999 L 371.974,-8.00899 L 371.987,-8.29268
 L 372.026,-8.52875 L 372.091,-8.71718 L 372.182,-8.85799 L 372.302,-8.96037 L 372.454,-9.03349 L 372.638,-9.07736
 L 372.854,-9.092 L 372.976,-9.08856 L 373.106,-9.07825 L 373.244,-9.06105 L 373.391,-9.03699 L 373.391,-9.967
 L 373.206,-10.0024 L 373.001,-10.0277 L 372.778,-10.0429 L 372.534,-10.048 L 372.111,-10.0207 L 371.746,-9.93874
 L 371.44,-9.80219 L 371.191,-9.61099 L 371,-9.35768 L 370.863,-9.03474 L 370.781,-8.64218 L 370.753,-8.17999
 L 370.753,-7.35999 L 369.727,-7.35999 L 369.727,-6.47198 L 370.753,-6.47198 L 370.753,-0 L 371.974,-0
 z
M 620.49,-2.61899 L 621.4,-3.35999 L 623.896,-0 L 625.326,-0 L 622.179,-4.19699 L 625.169,-7.35999
 L 623.739,-7.35999 L 620.49,-3.78899 L 620.49,-10.048 L 619.27,-10.048 L 619.27,-0 L 620.49,-0
 z
M 222.362,0.108932 L 222.727,0.0517426 L 223.058,-0.0435486 L 223.355,-0.176987 L 223.622,-0.354996 L 223.861,-0.582993
 L 224.073,-0.860992 L 224.257,-1.189 L 224.284,-1.189 L 224.285,-1.03862 L 224.29,-0.874496 L 224.297,-0.696625
 L 224.32,-0.324936 L 224.331,-0.18074 L 224.342,-0.0724335 L 224.352,-0 L 225.519,-0 L 225.501,-0.231613
 L 225.488,-0.560486 L 225.48,-0.986618 L 225.478,-1.50999 L 225.478,-10.048 L 224.257,-10.048 L 224.257,-7.02599
 L 224.271,-6.21199 L 224.257,-6.21199 L 224.073,-6.52199 L 223.862,-6.78699 L 223.624,-7.00699 L 223.359,-7.18199
 L 223.062,-7.31587 L 222.731,-7.4115 L 222.365,-7.46887 L 221.964,-7.48799 L 220.78,-7.24786 L 219.934,-6.5275
 L 219.426,-5.32687 L 219.257,-3.646 L 219.298,-2.75574 L 219.421,-1.98599 L 219.626,-1.33675 L 219.913,-0.807999
 L 220.287,-0.398499 L 220.754,-0.105988 L 221.313,0.0694885 L 221.964,0.127991 z
M 221.847,-0.856552 L 221.483,-0.981247 L 221.183,-1.18906 L 220.947,-1.48 L 220.768,-1.86768 L 220.641,-2.36475
 L 220.564,-2.97118 L 220.539,-3.687 L 220.565,-4.40074 L 220.642,-5.008 L 220.771,-5.50874 L 220.951,-5.903
 L 221.189,-6.2018 L 221.491,-6.41524 L 221.858,-6.5433 L 222.289,-6.586 L 222.768,-6.54355 L 223.177,-6.41624
 L 223.517,-6.20406 L 223.787,-5.907 L 223.992,-5.51868 L 224.139,-5.03275 L 224.227,-4.44917 L 224.257,-3.76799
 L 224.227,-3.06062 L 224.139,-2.4525 L 223.992,-1.94362 L 223.787,-1.534 L 223.516,-1.21944 L 223.174,-0.994736
 L 222.76,-0.859924 L 222.275,-0.814987 z
M 688.295,-10.048 L 687.075,-10.048 L 687.075,-0 L 688.295,-0 z
M 4994.21,2.00499 L 4993.79,2.00499 L 4993.5,1.98187 L 4993.26,1.91249 L 4993.07,1.79686 L 4992.92,1.63499
 L 4992.8,1.42812 L 4992.72,1.17749 L 4992.68,0.883118 L 4992.66,0.544998 L 4992.66,-1.879 L 4992.64,-2.19618
 L 4992.57,-2.48874 L 4992.46,-2.75668 L 4992.3,-3 L 4992.11,-3.211 L 4991.89,-3.38199 L 4991.63,-3.51299
 L 4991.34,-3.60399 L 4991.34,-3.618 L 4991.63,-3.709 L 4991.88,-3.84 L 4992.11,-4.01099 L 4992.3,-4.22198
 L 4992.46,-4.46381 L 4992.57,-4.72725 L 4992.64,-5.0123 L 4992.66,-5.31898 L 4992.66,-7.72198 L 4992.68,-8.06349
 L 4992.72,-8.35899 L 4992.8,-8.60849 L 4992.92,-8.812 L 4993.07,-8.96992 L 4993.26,-9.08275 L 4993.5,-9.15044
 L 4993.79,-9.17299 L 4994.21,-9.17299 L 4994.21,-10.048 L 4993.3,-10.048 L 4992.89,-10.0159 L 4992.53,-9.91974
 L 4992.22,-9.75943 L 4991.97,-9.53499 L 4991.77,-9.25105 L 4991.63,-8.91225 L 4991.55,-8.51855 L 4991.52,-8.06999
 L 4991.52,-5.625 L 4991.5,-5.25511 L 4991.43,-4.93549 L 4991.32,-4.66612 L 4991.16,-4.44699 L 4990.96,-4.27556
 L 4990.71,-4.14925 L 4990.42,-4.06805 L 4990.07,-4.032 L 4990.07,-3.17099 L 4990.42,-3.13168 L 4990.72,-3.04774
 L 4990.97,-2.91917 L 4991.17,-2.74599 L 4991.32,-2.52568 L 4991.43,-2.25475 L 4991.5,-1.93318 L 4991.52,-1.56099
 L 4991.52,0.889999 L 4991.55,1.33568 L 4991.64,1.72874 L 4991.78,2.06918 L 4991.98,2.35699 L 4992.24,2.5858
 L 4992.54,2.74924 L 4992.9,2.84731 L 4993.3,2.87999 L 4994.21,2.87999 z
M 81.0654,-0.112122 L 81.9117,-0.832489 L 82.4194,-2.03311 L 82.5887,-3.71399 L 82.5476,-4.60419 L 82.4244,-5.37375
 L 82.2191,-6.02267 L 81.9317,-6.55099 L 81.5575,-6.96094 L 81.0909,-7.25374 L 80.532,-7.42943 L 79.8807,-7.48799
 L 79.4824,-7.46887 L 79.1177,-7.4115 L 78.7864,-7.31587 L 78.4887,-7.18199 L 78.222,-7.00443 L 77.9829,-6.77675
 L 77.7715,-6.49893 L 77.5877,-6.17099 L 77.5607,-6.17099 L 77.5725,-6.45737 L 77.5809,-6.72449 L 77.586,-6.97237
 L 77.5877,-7.20099 L 77.5877,-10.048 L 76.3677,-10.048 L 76.3677,-1.50999 L 76.3651,-0.986618 L 76.3574,-0.560486
 L 76.3446,-0.231613 L 76.3267,-0 L 77.5067,-0 L 77.5141,-0.0568695 L 77.5341,-0.307861 L 77.5585,-0.705124
 L 77.5669,-0.880493 L 77.572,-1.02812 L 77.5737,-1.14799 L 77.5877,-1.14799 L 77.7741,-0.835114 L 77.9864,-0.568497
 L 78.2246,-0.348114 L 78.4887,-0.173996 L 78.7838,-0.0418701 L 79.1142,0.0524902 L 79.4798,0.109116 L 79.8807,0.127991
 z
M 79.0709,-0.817062 L 78.6584,-0.946243 L 78.3184,-1.16156 L 78.0507,-1.463 L 77.8481,-1.8548 L 77.7034,-2.34125
 L 77.6166,-2.9223 L 77.5877,-3.59799 L 77.6172,-4.31367 L 77.7059,-4.92574 L 77.8537,-5.43417 L 78.0607,-5.83899
 L 78.3327,-6.14787 L 78.6749,-6.3685 L 79.0872,-6.50087 L 79.5697,-6.545 L 79.9977,-6.50337 L 80.3617,-6.37849
 L 80.6617,-6.17036 L 80.8977,-5.879 L 81.0766,-5.49174 L 81.2044,-4.995 L 81.2811,-4.38875 L 81.3067,-3.67299
 L 81.2809,-2.95918 L 81.2037,-2.35175 L 81.0749,-1.85068 L 80.8947,-1.45599 L 80.6565,-1.15762 L 80.3539,-0.944489
 L 79.987,-0.81662 L 79.5557,-0.773987 z
M 4723.01,0.0817413 L 4723.66,-0.0569916 L 4724.22,-0.288239 L 4724.68,-0.612 L 4725.05,-1.01906 L 4725.32,-1.49924
 L 4725.47,-2.05255 L 4725.53,-2.67899 L 4725.5,-3.13124 L 4725.4,-3.54399 L 4725.24,-3.91724 L 4725.02,-4.25099
 L 4724.74,-4.53555 L 4724.41,-4.76024 L 4724.02,-4.92505 L 4723.59,-5.03 L 4723.59,-5.05699 L 4723.96,-5.1635
 L 4724.3,-5.327 L 4724.59,-5.54749 L 4724.83,-5.825 L 4725.03,-6.14418 L 4725.18,-6.48975 L 4725.26,-6.86168
 L 4725.29,-7.25999 L 4725.24,-7.79819 L 4725.08,-8.27774 L 4724.83,-8.69868 L 4724.47,-9.06099 L 4724.02,-9.3528
 L 4723.5,-9.56125 L 4722.91,-9.68631 L 4722.24,-9.728 L 4721.58,-9.68549 L 4721,-9.558 L 4720.48,-9.34549
 L 4720.04,-9.04799 L 4719.68,-8.68205 L 4719.42,-8.26424 L 4719.27,-7.79456 L 4719.22,-7.27299 L 4719.25,-6.87512
 L 4719.33,-6.50349 L 4719.47,-6.15811 L 4719.67,-5.83899 L 4719.92,-5.55974 L 4720.2,-5.334 L 4720.53,-5.16174
 L 4720.9,-5.043 L 4720.9,-5.01599 L 4720.51,-4.91655 L 4720.14,-4.75424 L 4719.82,-4.52905 L 4719.53,-4.241
 L 4719.3,-3.90324 L 4719.13,-3.528 L 4719.03,-3.11525 L 4718.99,-2.66499 L 4719.05,-2.03374 L 4719.21,-1.47899
 L 4719.48,-1.00075 L 4719.86,-0.598999 L 4720.34,-0.28093 L 4720.89,-0.0537415 L 4721.54,0.08255 L 4722.26,0.127991
 z
M 4721.85,-5.53099 L 4721.49,-5.612 L 4721.19,-5.74699 L 4720.93,-5.93599 L 4720.73,-6.1765 L 4720.58,-6.46599
 L 4720.49,-6.80449 L 4720.47,-7.19199 L 4720.49,-7.57187 L 4720.58,-7.90149 L 4720.72,-8.18086 L 4720.92,-8.40999
 L 4721.17,-8.58893 L 4721.47,-8.71674 L 4721.83,-8.79343 L 4722.24,-8.81898 L 4723.02,-8.7173 L 4723.58,-8.41225
 L 4723.91,-7.90381 L 4724.02,-7.19199 L 4723.99,-6.77687 L 4723.91,-6.42349 L 4723.77,-6.13187 L 4723.57,-5.90199
 L 4723.32,-5.72787 L 4723.01,-5.60349 L 4722.66,-5.52887 L 4722.25,-5.504 z
M 4721.39,-0.910675 L 4720.76,-1.28174 L 4720.38,-1.90018 L 4720.25,-2.76599 L 4720.29,-3.16824 L 4720.39,-3.52499
 L 4720.55,-3.83624 L 4720.78,-4.10199 L 4721.07,-4.31505 L 4721.41,-4.46724 L 4721.8,-4.55855 L 4722.24,-4.58899
 L 4722.69,-4.56068 L 4723.09,-4.47574 L 4723.44,-4.33418 L 4723.73,-4.13599 L 4723.96,-3.88255 L 4724.13,-3.57425
 L 4724.23,-3.21106 L 4724.26,-2.793 L 4724.23,-2.30493 L 4724.14,-1.88774 L 4723.98,-1.54143 L 4723.77,-1.26599
 L 4723.49,-1.05643 L 4723.15,-0.906738 L 4722.75,-0.816925 L 4722.28,-0.786987 z
M 4119.58,0.048996 L 4120.26,-0.187988 L 4120.83,-0.582993 L 4121.3,-1.13599 L 4121.67,-1.83937 L 4121.94,-2.68449
 L 4122.1,-3.67137 L 4122.15,-4.79999 L 4122.1,-5.94524 L 4121.95,-6.94099 L 4121.7,-7.78725 L 4121.35,-8.48399
 L 4120.89,-9.02824 L 4120.32,-9.41699 L 4119.64,-9.65024 L 4118.85,-9.728 L 4118.04,-9.65106 L 4117.34,-9.42024
 L 4116.76,-9.03555 L 4116.3,-8.49699 L 4115.95,-7.80469 L 4115.7,-6.95775 L 4115.55,-5.95618 L 4115.5,-4.79999
 L 4115.55,-3.66568 L 4115.7,-2.67574 L 4115.96,-1.83018 L 4116.32,-1.129 L 4116.79,-0.579056 L 4117.36,-0.186249
 L 4118.03,0.0494232 L 4118.81,0.127991 z
M 4118.31,-0.928055 L 4117.88,-1.10524 L 4117.52,-1.40056 L 4117.23,-1.814 L 4117.01,-2.35536 L 4116.85,-3.03349
 L 4116.76,-3.84837 L 4116.73,-4.79999 L 4116.76,-5.77699 L 4116.85,-6.60599 L 4117.01,-7.28699 L 4117.22,-7.81999
 L 4117.51,-8.22162 L 4117.88,-8.5085 L 4118.32,-8.68062 L 4118.85,-8.73799 L 4119.36,-8.67975 L 4119.79,-8.50499
 L 4120.15,-8.21375 L 4120.43,-7.806 L 4120.64,-7.26862 L 4120.79,-6.58849 L 4120.88,-5.76561 L 4120.91,-4.79999
 L 4120.88,-3.86505 L 4120.78,-3.05925 L 4120.63,-2.38255 L 4120.41,-1.83499 L 4120.12,-1.41237 L 4119.76,-1.11049
 L 4119.33,-0.929367 L 4118.82,-0.868988 z
M 2968.19,0.0901794 L 2968.85,-0.0232391 L 2969.46,-0.212311 L 2970.02,-0.47699 L 2970.53,-0.81218 L 2970.97,-1.21274
 L 2971.35,-1.67868 L 2971.67,-2.20999 L 2971.92,-2.79781 L 2972.1,-3.43224 L 2972.2,-4.11331 L 2972.24,-4.84099
 L 2972.21,-5.57043 L 2972.1,-6.24974 L 2971.92,-6.87894 L 2971.67,-7.45799 L 2971.36,-7.97905 L 2970.98,-8.43425
 L 2970.54,-8.82355 L 2970.03,-9.14699 L 2969.47,-9.40118 L 2968.86,-9.58275 L 2968.21,-9.69168 L 2967.5,-9.728
 L 2966.44,-9.64705 L 2965.51,-9.40424 L 2964.69,-8.99956 L 2964,-8.433 L 2963.46,-7.72287 L 2963.06,-6.8875
 L 2962.83,-5.92686 L 2962.75,-4.84099 L 2962.78,-4.11006 L 2962.89,-3.42624 L 2963.07,-2.78955 L 2963.31,-2.2
 L 2963.63,-1.66737 L 2964,-1.20149 L 2964.44,-0.802368 L 2964.94,-0.469986 L 2965.51,-0.208374 L 2966.12,-0.0214996
 L 2966.78,0.0906219 L 2967.49,0.127991 z
M 2966.73,-0.989059 L 2966.05,-1.18724 L 2965.47,-1.51755 L 2964.97,-1.98 L 2964.57,-2.55556 L 2964.29,-3.22424
 L 2964.12,-3.98605 L 2964.06,-4.84099 L 2964.12,-5.69836 L 2964.29,-6.4545 L 2964.57,-7.10936 L 2964.96,-7.66299
 L 2965.46,-8.10356 L 2966.04,-8.41824 L 2966.73,-8.60706 L 2967.5,-8.67 L 2968.27,-8.60625 L 2968.95,-8.41499
 L 2969.53,-8.09624 L 2970.02,-7.64999 L 2970.42,-7.09193 L 2970.7,-6.43774 L 2970.86,-5.68742 L 2970.92,-4.84099
 L 2970.86,-3.95844 L 2970.7,-3.18175 L 2970.42,-2.51093 L 2970.03,-1.946 L 2969.54,-1.49843 L 2968.95,-1.17874
 L 2968.27,-0.986923 L 2967.49,-0.922989 z
M 4798.22,0.0451813 L 4798.91,-0.203247 L 4799.5,-0.61731 L 4800,-1.19699 L 4800.4,-1.9313 L 4800.68,-2.80824
 L 4800.85,-3.8278 L 4800.9,-4.98999 L 4800.85,-6.10205 L 4800.7,-7.06525 L 4800.44,-7.87956 L 4800.08,-8.545
 L 4799.62,-9.06256 L 4799.06,-9.43224 L 4798.41,-9.65405 L 4797.66,-9.728 L 4796.95,-9.67412 L 4796.32,-9.5125
 L 4795.78,-9.24312 L 4795.31,-8.866 L 4794.95,-8.39519 L 4794.68,-7.84375 L 4794.52,-7.21169 L 4794.47,-6.49899
 L 4794.52,-5.80312 L 4794.67,-5.17949 L 4794.91,-4.62811 L 4795.25,-4.14899 L 4795.67,-3.76181 L 4796.15,-3.48524
 L 4796.7,-3.31931 L 4797.32,-3.26399 L 4797.7,-3.28705 L 4798.07,-3.35625 L 4798.43,-3.47156 L 4798.76,-3.633
 L 4799.07,-3.83299 L 4799.33,-4.06299 L 4799.54,-4.323 L 4799.7,-4.61299 L 4799.65,-3.76105 L 4799.53,-3.01324
 L 4799.35,-2.36955 L 4799.09,-1.82999 L 4798.77,-1.40343 L 4798.39,-1.09874 L 4797.95,-0.915924 L 4797.46,-0.854996
 L 4796.88,-0.929611 L 4796.42,-1.15349 L 4796.07,-1.52661 L 4795.83,-2.049 L 4794.67,-1.866 L 4794.84,-1.37668
 L 4795.06,-0.959747 L 4795.32,-0.615173 L 4795.64,-0.342987 L 4796,-0.136932 L 4796.42,0.0102386 L 4796.9,0.0985565
 L 4797.44,0.127991 z
M 4797.19,-4.26518 L 4796.82,-4.37975 L 4796.5,-4.57068 L 4796.22,-4.838 L 4796,-5.17099 L 4795.84,-5.55899
 L 4795.74,-6.002 L 4795.71,-6.5 L 4795.74,-6.98837 L 4795.84,-7.42349 L 4796,-7.80537 L 4796.22,-8.13399
 L 4796.5,-8.39824 L 4796.83,-8.58699 L 4797.2,-8.70024 L 4797.62,-8.73799 L 4798.04,-8.6938 L 4798.42,-8.56125
 L 4798.75,-8.3403 L 4799.04,-8.03099 L 4799.28,-7.64961 L 4799.44,-7.21149 L 4799.54,-6.71661 L 4799.57,-6.16499
 L 4799.56,-5.88962 L 4799.51,-5.62949 L 4799.43,-5.38461 L 4799.31,-5.155 L 4799.17,-4.946 L 4799,-4.76199
 L 4798.81,-4.603 L 4798.59,-4.46899 L 4798.36,-4.36311 L 4798.12,-4.28749 L 4797.87,-4.24211 L 4797.61,-4.22699
 z
M 3166.09,2.61469 L 3166.39,2.58675 L 3166.69,2.54018 L 3167,2.47499 L 3167,1.56499 L 3166.8,1.60393
 L 3166.6,1.63174 L 3166.41,1.64844 L 3166.22,1.65399 L 3165.89,1.63055 L 3165.59,1.56024 L 3165.32,1.44305
 L 3165.08,1.27899 L 3164.86,1.06218 L 3164.67,0.786743 L 3164.5,0.452682 L 3164.35,0.0599976 L 3165.2,-0.126312
 L 3165.96,-0.446243 L 3166.62,-0.899811 L 3167.18,-1.487 L 3167.62,-2.18661 L 3167.94,-2.97649 L 3168.13,-3.85661
 L 3168.2,-4.827 L 3168.16,-5.55836 L 3168.06,-6.23949 L 3167.88,-6.87036 L 3167.63,-7.45099 L 3167.32,-7.9735
 L 3166.94,-8.42999 L 3166.5,-8.8205 L 3165.99,-9.14499 L 3165.43,-9.40005 L 3164.82,-9.58224 L 3164.16,-9.69156
 L 3163.46,-9.728 L 3162.4,-9.6468 L 3161.46,-9.40324 L 3160.65,-8.9973 L 3159.96,-8.42899 L 3159.41,-7.71712
 L 3159.02,-6.87949 L 3158.78,-5.91612 L 3158.71,-4.827 L 3158.74,-4.12292 L 3158.83,-3.46274 L 3158.99,-2.84644
 L 3159.22,-2.27399 L 3159.5,-1.75418 L 3159.85,-1.29474 L 3160.25,-0.895676 L 3160.7,-0.556992 L 3161.22,-0.282806
 L 3161.77,-0.07724 L 3162.37,0.0596771 L 3163.02,0.127991 L 3163.25,0.752808 L 3163.51,1.28125 L 3163.79,1.7133
 L 3164.11,2.049 L 3164.46,2.30055 L 3164.86,2.48024 L 3165.3,2.58806 L 3165.79,2.62399 z
M 3162.68,-0.962311 L 3162.01,-1.16124 L 3161.43,-1.4928 L 3160.93,-1.95699 L 3160.53,-2.53462 L 3160.25,-3.20549
 L 3160.08,-3.96962 L 3160.02,-4.827 L 3160.08,-5.68768 L 3160.25,-6.44675 L 3160.53,-7.10419 L 3160.92,-7.65999
 L 3161.41,-8.10187 L 3162,-8.4175 L 3162.68,-8.60687 L 3163.46,-8.67 L 3164.23,-8.60599 L 3164.9,-8.41399
 L 3165.49,-8.09399 L 3165.98,-7.646 L 3166.37,-7.0858 L 3166.65,-6.42924 L 3166.82,-5.6763 L 3166.88,-4.827
 L 3166.82,-3.94162 L 3166.65,-3.16249 L 3166.38,-2.48962 L 3165.99,-1.92299 L 3165.5,-1.47368 L 3164.91,-1.15274
 L 3164.23,-0.960175 L 3163.44,-0.895996 z
M 4272.85,-1.03799 L 4267.85,-1.03799 L 4267.97,-1.27837 L 4268.12,-1.5235 L 4268.3,-1.77336 L 4268.52,-2.028
 L 4268.77,-2.29286 L 4269.06,-2.57349 L 4269.39,-2.86987 L 4269.77,-3.18199 L 4270.42,-3.72218 L 4270.96,-4.18674
 L 4271.38,-4.57568 L 4271.69,-4.88899 L 4271.93,-5.16493 L 4272.13,-5.44073 L 4272.31,-5.71643 L 4272.45,-5.99199
 L 4272.56,-6.26793 L 4272.64,-6.54474 L 4272.69,-6.82243 L 4272.7,-7.101 L 4272.66,-7.69455 L 4272.51,-8.21625
 L 4272.27,-8.66606 L 4271.93,-9.04399 L 4271.49,-9.34325 L 4270.98,-9.55699 L 4270.38,-9.68524 L 4269.7,-9.728
 L 4269.07,-9.68562 L 4268.5,-9.55849 L 4267.99,-9.34662 L 4267.54,-9.04999 L 4267.16,-8.68175 L 4266.88,-8.25499
 L 4266.68,-7.76974 L 4266.57,-7.226 L 4267.81,-7.11099 L 4267.88,-7.47255 L 4268.01,-7.79124 L 4268.18,-8.06706
 L 4268.41,-8.29999 L 4268.68,-8.48549 L 4268.99,-8.618 L 4269.33,-8.69749 L 4269.7,-8.724 L 4270.09,-8.69669
 L 4270.43,-8.61475 L 4270.73,-8.47818 L 4270.99,-8.28699 L 4271.19,-8.0468 L 4271.33,-7.76224 L 4271.42,-7.4333
 L 4271.45,-7.06 L 4271.43,-6.77512 L 4271.38,-6.50549 L 4271.3,-6.25111 L 4271.18,-6.01199 L 4271.04,-5.78349
 L 4270.87,-5.56 L 4270.68,-5.34149 L 4270.48,-5.12799 L 4270.25,-4.91699 L 4270.02,-4.70599 L 4269.76,-4.495
 L 4269.23,-4.06856 L 4268.96,-3.84424 L 4268.68,-3.61105 L 4268.41,-3.36899 L 4268.14,-3.11525 L 4267.87,-2.84698
 L 4267.61,-2.56424 L 4267.36,-2.267 L 4267.12,-1.95081 L 4266.9,-1.61124 L 4266.69,-1.24831 L 4266.51,-0.862
 L 4266.51,-0 L 4272.85,-0 z
M 1913.23,0.0874939 L 1913.87,-0.0339966 L 1914.47,-0.236496 L 1915.02,-0.519989 L 1915.53,-0.881622 L 1915.98,-1.31749
 L 1916.36,-1.82762 L 1916.69,-2.41199 L 1915.63,-2.94398 L 1915.06,-2.06593 L 1914.37,-1.43874 L 1913.55,-1.06242
 L 1912.6,-0.936996 L 1911.86,-1.00394 L 1911.2,-1.20474 L 1910.61,-1.53943 L 1910.11,-2.008 L 1909.71,-2.58669
 L 1909.42,-3.25174 L 1909.25,-4.00317 L 1909.19,-4.84099 L 1909.25,-5.68456 L 1909.41,-6.43324 L 1909.69,-7.08705
 L 1910.07,-7.646 L 1910.56,-8.09399 L 1911.14,-8.41399 L 1911.8,-8.60599 L 1912.55,-8.67 L 1913.04,-8.64281
 L 1913.49,-8.56125 L 1913.91,-8.42531 L 1914.3,-8.23499 L 1914.64,-7.99318 L 1914.94,-7.70274 L 1915.18,-7.36368
 L 1915.37,-6.976 L 1916.6,-7.37999 L 1916.32,-7.92624 L 1915.98,-8.40099 L 1915.57,-8.80424 L 1915.09,-9.13599
 L 1914.55,-9.39499 L 1913.94,-9.57999 L 1913.27,-9.69099 L 1912.53,-9.728 L 1911.5,-9.6468 L 1910.59,-9.40324
 L 1909.79,-8.9973 L 1909.11,-8.42899 L 1908.57,-7.71799 L 1908.18,-6.883 L 1907.95,-5.924 L 1907.87,-4.84099
 L 1907.91,-4.10175 L 1908.01,-3.41399 L 1908.19,-2.77774 L 1908.43,-2.19299 L 1908.74,-1.66624 L 1909.11,-1.20399
 L 1909.54,-0.806244 L 1910.04,-0.472992 L 1910.59,-0.210052 L 1911.19,-0.0222473 L 1911.84,0.0904236 L 1912.54,0.127991
 z
M 4345.86,0.0823059 L 4346.51,-0.0547485 L 4347.06,-0.283173 L 4347.53,-0.602997 L 4347.9,-1.00656 L 4348.16,-1.48524
 L 4348.32,-2.03906 L 4348.37,-2.668 L 4348.33,-3.1098 L 4348.22,-3.51224 L 4348.04,-3.87531 L 4347.77,-4.19899
 L 4347.44,-4.47275 L 4347.06,-4.685 L 4346.61,-4.83574 L 4346.1,-4.92499 L 4346.1,-4.952 L 4346.56,-5.07643
 L 4346.96,-5.24675 L 4347.31,-5.46294 L 4347.59,-5.72499 L 4347.82,-6.0318 L 4347.98,-6.38124 L 4348.08,-6.7733
 L 4348.11,-7.20799 L 4348.06,-7.76974 L 4347.91,-8.26599 L 4347.66,-8.69675 L 4347.31,-9.062 L 4346.87,-9.35336
 L 4346.35,-9.56149 L 4345.75,-9.68637 L 4345.07,-9.728 L 4344.44,-9.68687 L 4343.87,-9.56349 L 4343.36,-9.35786
 L 4342.91,-9.06999 L 4342.53,-8.70924 L 4342.24,-8.284 L 4342.05,-7.79424 L 4341.93,-7.23999 L 4343.16,-7.14499
 L 4343.23,-7.4998 L 4343.35,-7.81224 L 4343.52,-8.08231 L 4343.74,-8.31 L 4344.01,-8.49112 L 4344.32,-8.6205
 L 4344.67,-8.69812 L 4345.05,-8.724 L 4345.47,-8.69637 L 4345.84,-8.61349 L 4346.15,-8.47537 L 4346.4,-8.282
 L 4346.6,-8.04143 L 4346.74,-7.76074 L 4346.82,-7.43993 L 4346.85,-7.07899 L 4346.82,-6.71536 L 4346.71,-6.39349
 L 4346.54,-6.11337 L 4346.3,-5.875 L 4345.99,-5.68468 L 4345.63,-5.54874 L 4345.21,-5.46718 L 4344.74,-5.43999
 L 4344.07,-5.43999 L 4344.07,-4.38199 L 4344.76,-4.38199 L 4345.3,-4.35431 L 4345.77,-4.27124 L 4346.17,-4.13281
 L 4346.5,-3.939 L 4346.76,-3.69624 L 4346.95,-3.40999 L 4347.07,-3.08025 L 4347.1,-2.70699 L 4347.07,-2.2823
 L 4346.97,-1.91324 L 4346.81,-1.59981 L 4346.58,-1.342 L 4346.29,-1.14075 L 4345.95,-0.996994 L 4345.56,-0.910736
 L 4345.12,-0.881989 L 4344.3,-0.987991 L 4343.68,-1.306 L 4343.25,-1.836 L 4343.03,-2.57799 L 4341.77,-2.463
 L 4341.9,-1.86118 L 4342.11,-1.33774 L 4342.41,-0.892685 L 4342.8,-0.525986 L 4343.27,-0.239868 L 4343.81,-0.0354919
 L 4344.43,0.0871124 L 4345.12,0.127991 z
M 2282.5,0.101425 L 2283.11,0.0217438 L 2283.7,-0.111053 L 2284.26,-0.296997 L 2284.79,-0.531372 L 2285.28,-0.809494
 L 2285.72,-1.13136 L 2286.12,-1.49699 L 2286.12,-4.79999 L 2282.07,-4.79999 L 2282.07,-3.715 L 2284.93,-3.715
 L 2284.93,-1.98499 L 2284.66,-1.75275 L 2284.35,-1.54599 L 2284,-1.36475 L 2283.62,-1.209 L 2283.2,-1.08386
 L 2282.77,-0.994492 L 2282.33,-0.940872 L 2281.87,-0.922989 L 2281.09,-0.988678 L 2280.4,-1.18575 L 2279.8,-1.51418
 L 2279.29,-1.974 L 2278.89,-2.5473 L 2278.6,-3.21625 L 2278.42,-3.9808 L 2278.36,-4.84099 L 2278.42,-5.70125
 L 2278.58,-6.459 L 2278.86,-7.11424 L 2279.24,-7.66699 L 2279.73,-8.1058 L 2280.31,-8.41924 L 2280.99,-8.6073
 L 2281.77,-8.67 L 2282.28,-8.64656 L 2282.75,-8.57625 L 2283.18,-8.45906 L 2283.56,-8.295 L 2283.89,-8.08031
 L 2284.2,-7.81024 L 2284.46,-7.4848 L 2284.68,-7.10399 L 2285.91,-7.47099 L 2285.62,-8.02211 L 2285.26,-8.49249
 L 2284.85,-8.88211 L 2284.39,-9.19099 L 2283.85,-9.42593 L 2283.25,-9.59375 L 2282.56,-9.69443 L 2281.81,-9.728
 L 2280.74,-9.64812 L 2279.8,-9.40849 L 2278.98,-9.00912 L 2278.3,-8.45 L 2277.75,-7.74518 L 2277.36,-6.90874
 L 2277.12,-5.94067 L 2277.05,-4.84099 L 2277.08,-4.10437 L 2277.19,-3.4175 L 2277.37,-2.78036 L 2277.62,-2.19299
 L 2277.94,-1.66344 L 2278.32,-1.19974 L 2278.77,-0.801926 L 2279.28,-0.469986 L 2279.85,-0.208374 L 2280.47,-0.0214996
 L 2281.14,0.0906219 L 2281.87,0.127991 z
M 4572.25,0.0731201 L 4572.86,-0.0914917 L 4573.39,-0.36586 L 4573.84,-0.75 L 4574.2,-1.22893 L 4574.46,-1.78773
 L 4574.61,-2.42644 L 4574.66,-3.14499 L 4574.61,-3.81024 L 4574.47,-4.40399 L 4574.22,-4.92624 L 4573.88,-5.377
 L 4573.46,-5.74055 L 4572.97,-6.00024 L 4572.41,-6.15605 L 4571.78,-6.20799 L 4571.4,-6.18781 L 4571.04,-6.12724
 L 4570.7,-6.02631 L 4570.39,-5.88499 L 4570.1,-5.70555 L 4569.85,-5.48924 L 4569.63,-5.23605 L 4569.45,-4.946
 L 4569.49,-5.814 L 4569.59,-6.573 L 4569.77,-7.22299 L 4570.03,-7.76399 L 4570.34,-8.19012 L 4570.72,-8.49449
 L 4571.16,-8.67712 L 4571.65,-8.73799 L 4572.21,-8.66512 L 4572.65,-8.44649 L 4573,-8.08212 L 4573.23,-7.57199
 L 4574.4,-7.782 L 4574.01,-8.63336 L 4573.43,-9.24149 L 4572.65,-9.60637 L 4571.66,-9.728 L 4570.89,-9.64468
 L 4570.21,-9.39474 L 4569.62,-8.97818 L 4569.13,-8.39499 L 4568.74,-7.6568 L 4568.46,-6.77425 L 4568.29,-5.7473
 L 4568.24,-4.57599 L 4568.29,-3.49542 L 4568.45,-2.55174 L 4568.72,-1.74493 L 4569.09,-1.075 L 4569.57,-0.548676
 L 4570.14,-0.172745 L 4570.81,0.0528107 L 4571.57,0.127991 z
M 4571.12,-0.899307 L 4570.75,-1.03224 L 4570.41,-1.2538 L 4570.12,-1.564 L 4569.88,-1.94362 L 4569.71,-2.37349
 L 4569.61,-2.85362 L 4569.57,-3.38399 L 4569.61,-3.79987 L 4569.7,-4.16849 L 4569.87,-4.48987 L 4570.1,-4.76399
 L 4570.38,-4.98318 L 4570.71,-5.13974 L 4571.08,-5.23367 L 4571.49,-5.265 L 4571.92,-5.22961 L 4572.3,-5.12349
 L 4572.63,-4.94662 L 4572.91,-4.69899 L 4573.13,-4.38661 L 4573.29,-4.0145 L 4573.39,-3.58261 L 4573.42,-3.09099
 L 4573.39,-2.59737 L 4573.29,-2.15948 L 4573.14,-1.77737 L 4572.92,-1.45099 L 4572.64,-1.19025 L 4572.32,-1.004
 L 4571.95,-0.892242 L 4571.53,-0.854996 z
M 3367.06,0.08255 L 3367.84,-0.0537415 L 3368.52,-0.28093 L 3369.09,-0.598999 L 3369.54,-1.00031 L 3369.87,-1.47624
 L 3370.06,-2.02681 L 3370.13,-2.65199 L 3370.12,-2.905 L 3370.09,-3.14099 L 3370.04,-3.35999 L 3369.98,-3.562
 L 3369.9,-3.74956 L 3369.81,-3.92424 L 3369.7,-4.08606 L 3369.57,-4.23499 L 3369.44,-4.37244 L 3369.29,-4.49875
 L 3369.14,-4.61394 L 3368.97,-4.71799 L 3368.79,-4.81331 L 3368.6,-4.90224 L 3368.41,-4.9848 L 3368.22,-5.06099
 L 3368.01,-5.13187 L 3367.81,-5.19749 L 3367.59,-5.25787 L 3367.38,-5.31299 L 3366.5,-5.51999 L 3365.89,-5.66025
 L 3365.4,-5.78899 L 3365.01,-5.90623 L 3364.74,-6.01199 L 3364.53,-6.118 L 3364.35,-6.23499 L 3364.19,-6.36299
 L 3364.06,-6.502 L 3363.96,-6.65605 L 3363.88,-6.82924 L 3363.84,-7.02156 L 3363.83,-7.23299 L 3363.86,-7.58755
 L 3363.98,-7.89525 L 3364.17,-8.15605 L 3364.43,-8.37 L 3364.77,-8.53668 L 3365.17,-8.65575 L 3365.64,-8.72717
 L 3366.19,-8.75099 L 3366.68,-8.72955 L 3367.12,-8.66524 L 3367.5,-8.55806 L 3367.82,-8.40799 L 3368.1,-8.21094
 L 3368.32,-7.96175 L 3368.5,-7.66043 L 3368.63,-7.30699 L 3369.9,-7.53099 L 3369.7,-8.08711 L 3369.43,-8.5555
 L 3369.09,-8.93611 L 3368.69,-9.22899 L 3368.21,-9.44731 L 3367.64,-9.60324 L 3366.97,-9.69681 L 3366.2,-9.728
 L 3365.37,-9.68637 L 3364.65,-9.56149 L 3364.03,-9.35336 L 3363.51,-9.062 L 3363.09,-8.69368 L 3362.8,-8.25475
 L 3362.62,-7.74518 L 3362.56,-7.16499 L 3362.58,-6.90411 L 3362.61,-6.65849 L 3362.67,-6.42812 L 3362.74,-6.213
 L 3362.84,-6.01256 L 3362.96,-5.82524 L 3363.1,-5.65106 L 3363.26,-5.48999 L 3363.45,-5.33905 L 3363.67,-5.19524
 L 3363.91,-5.05855 L 3364.19,-4.92899 L 3364.52,-4.80344 L 3364.92,-4.67775 L 3365.38,-4.55193 L 3365.91,-4.42599
 L 3366.54,-4.28174 L 3367.1,-4.14699 L 3367.36,-4.07867 L 3367.6,-4.00275 L 3367.82,-3.91917 L 3368.03,-3.82799
 L 3368.21,-3.72656 L 3368.37,-3.61224 L 3368.51,-3.48506 L 3368.63,-3.34499 L 3368.72,-3.18793 L 3368.79,-3.00874
 L 3368.83,-2.80743 L 3368.84,-2.584 L 3368.8,-2.19073 L 3368.67,-1.84799 L 3368.46,-1.55574 L 3368.16,-1.314
 L 3367.78,-1.125 L 3367.33,-0.98999 L 3366.81,-0.908997 L 3366.22,-0.881989 L 3365.64,-0.907181 L 3365.13,-0.982742
 L 3364.68,-1.10867 L 3364.3,-1.28499 L 3363.97,-1.51562 L 3363.71,-1.8035 L 3363.51,-2.14862 L 3363.37,-2.55099
 L 3362.12,-2.29999 L 3362.58,-1.23775 L 3363.41,-0.478989 L 3364.61,-0.0237427 L 3366.17,0.127991 z
M 3070.02,-3.71199 L 3072.84,-3.71199 L 3073.56,-3.76193 L 3074.2,-3.91174 L 3074.76,-4.16142 L 3075.25,-4.51099
 L 3075.63,-4.94524 L 3075.91,-5.44899 L 3076.08,-6.02225 L 3076.13,-6.66499 L 3076.08,-7.31042 L 3075.91,-7.87874
 L 3075.64,-8.36993 L 3075.25,-8.784 L 3074.76,-9.11299 L 3074.19,-9.34799 L 3073.52,-9.489 L 3072.76,-9.536
 L 3068.73,-9.536 L 3068.73,-0 L 3070.02,-0 z
M 3070.02,-4.73599 L 3070.02,-8.49799 L 3072.6,-8.49799 L 3073.58,-8.38255 L 3074.27,-8.03624 L 3074.69,-7.45906
 L 3074.83,-6.65099 L 3074.7,-5.81319 L 3074.29,-5.21474 L 3073.61,-4.85568 L 3072.66,-4.73599 z
M 3265.98,-3.96799 L 3268.97,-3.96799 L 3271.46,-0 L 3272.95,-0 L 3270.23,-4.11699 L 3270.75,-4.24487
 L 3271.2,-4.4395 L 3271.6,-4.70087 L 3271.94,-5.02899 L 3272.22,-5.41162 L 3272.41,-5.83649 L 3272.53,-6.30362
 L 3272.57,-6.81299 L 3272.51,-7.41968 L 3272.35,-7.95575 L 3272.07,-8.42117 L 3271.69,-8.81599 L 3271.2,-9.131
 L 3270.62,-9.35599 L 3269.95,-9.491 L 3269.19,-9.536 L 3264.69,-9.536 L 3264.69,-0 L 3265.98,-0
 z
M 3265.98,-4.99199 L 3265.98,-8.49799 L 3269.06,-8.49799 L 3269.56,-8.47081 L 3270,-8.38924 L 3270.38,-8.25331
 L 3270.7,-8.06299 L 3270.95,-7.82086 L 3271.12,-7.5295 L 3271.23,-7.18887 L 3271.26,-6.799 L 3271.23,-6.39474
 L 3271.12,-6.03799 L 3270.95,-5.72874 L 3270.7,-5.467 L 3270.39,-5.25919 L 3270.03,-5.11075 L 3269.6,-5.02168
 L 3269.12,-4.99199 z
M 1728.72,-2.76599 L 1733.09,-2.76599 L 1734.18,-0 L 1735.5,-0 L 1731.66,-9.536 L 1730.18,-9.536
 L 1726.28,-0 L 1727.62,-0 z
M 1729.12,-3.77599 L 1730.34,-6.922 L 1730.5,-7.34355 L 1730.63,-7.72523 L 1730.75,-8.06706 L 1730.9,-8.55899
 L 1731.18,-7.70712 L 1731.28,-7.43449 L 1731.37,-7.17712 L 1732.7,-3.77599 z
M 2866.44,-6.33299 L 2866.41,-7.463 L 2866.38,-8.11899 L 2871.5,-0 L 2873.06,-0 L 2873.06,-9.536
 L 2871.9,-9.536 L 2871.9,-3.284 L 2871.9,-2.94081 L 2871.92,-2.50624 L 2871.94,-1.9803 L 2871.98,-1.36299
 L 2866.8,-9.536 L 2865.29,-9.536 L 2865.29,-0 L 2866.44,-0 z
M 3456.84,-8.478 L 3460.14,-8.478 L 3460.14,-9.536 L 3452.26,-9.536 L 3452.26,-8.478 L 3455.55,-8.478
 L 3455.55,-0 L 3456.84,-0 z
M 2753.47,-6.35999 L 2753.44,-7.63899 L 2753.42,-8.39 L 2753.64,-7.646 L 2754.02,-6.495 L 2756.53,-0
 L 2757.44,-0 L 2759.91,-6.495 L 2760.05,-6.86993 L 2760.19,-7.31075 L 2760.35,-7.81743 L 2760.51,-8.39
 L 2760.48,-7.89787 L 2760.46,-7.39549 L 2760.45,-6.88287 L 2760.45,-6.35999 L 2760.45,-0 L 2761.61,-0
 L 2761.61,-9.536 L 2759.95,-9.536 L 2757.42,-2.82944 L 2757.36,-2.68175 L 2757.3,-2.48293 L 2757.22,-2.23299
 L 2757.14,-1.97499 L 2757.07,-1.752 L 2757.03,-1.564 L 2756.99,-1.411 L 2756.97,-1.52831 L 2756.93,-1.67725
 L 2756.88,-1.8578 L 2756.76,-2.29486 L 2756.7,-2.5125 L 2756.63,-2.72287 L 2756.56,-2.92599 L 2754.01,-9.536
 L 2752.31,-9.536 L 2752.31,-0 L 2753.47,-0 z
M 2683.02,-1.058 L 2678.18,-1.058 L 2678.18,-9.536 L 2676.88,-9.536 L 2676.88,-0 L 2683.02,-0
 z
M 2587.72,-3.655 L 2588.97,-4.60199 L 2592.8,-0 L 2594.41,-0 L 2589.79,-5.394 L 2593.86,-9.536
 L 2592.34,-9.536 L 2587.72,-4.758 L 2587.72,-9.536 L 2586.42,-9.536 L 2586.42,-0 L 2587.72,-0
 z
M 2521.21,0.0783691 L 2521.76,-0.0704956 L 2522.24,-0.318619 L 2522.65,-0.665985 L 2522.99,-1.10049 L 2523.22,-1.60899
 L 2523.36,-2.1915 L 2523.41,-2.84799 L 2523.41,-9.536 L 2520.27,-9.536 L 2520.27,-8.478 L 2522.12,-8.478
 L 2522.12,-2.82199 L 2522.1,-2.38362 L 2522.02,-2.0015 L 2521.89,-1.67561 L 2521.71,-1.40599 L 2521.49,-1.19469
 L 2521.23,-1.04375 L 2520.93,-0.953186 L 2520.59,-0.922989 L 2520.28,-0.95105 L 2520,-1.03525 L 2519.74,-1.17555
 L 2519.51,-1.37199 L 2519.31,-1.61899 L 2519.16,-1.90999 L 2519.04,-2.245 L 2518.96,-2.62399 L 2517.69,-2.411
 L 2518.04,-1.30019 L 2518.64,-0.506744 L 2519.49,-0.0306854 L 2520.58,0.127991 z
M 2482.36,-9.536 L 2481.06,-9.536 L 2481.06,-0 L 2482.36,-0 z
M 2384.28,-4.41899 L 2389.46,-4.41899 L 2389.46,-0 L 2390.76,-0 L 2390.76,-9.536 L 2389.46,-9.536
 L 2389.46,-5.504 L 2384.28,-5.504 L 2384.28,-9.536 L 2382.99,-9.536 L 2382.99,-0 L 2384.28,-0
 z
M 2195.94,-3.85699 L 2201.3,-3.85699 L 2201.3,-4.92799 L 2195.94,-4.92799 L 2195.94,-8.478 L 2201.46,-8.478
 L 2201.46,-9.536 L 2194.65,-9.536 L 2194.65,-0 L 2195.94,-0 z
M 2111.73,-1.058 L 2105.48,-1.058 L 2105.48,-4.396 L 2111.04,-4.396 L 2111.04,-5.43999 L 2105.48,-5.43999
 L 2105.48,-8.478 L 2111.45,-8.478 L 2111.45,-9.536 L 2104.19,-9.536 L 2104.19,-0 L 2111.73,-0
 z
M 2010.5,-0.0368042 L 2011.13,-0.147247 L 2011.72,-0.331299 L 2012.27,-0.588989 L 2012.77,-0.915802 L 2013.21,-1.30724
 L 2013.59,-1.76331 L 2013.91,-2.284 L 2014.16,-2.86049 L 2014.34,-3.48299 L 2014.45,-4.15149 L 2014.49,-4.866
 L 2014.41,-5.92194 L 2014.16,-6.84975 L 2013.75,-7.64943 L 2013.17,-8.321 L 2012.44,-8.85255 L 2011.57,-9.23224
 L 2010.56,-9.46005 L 2009.41,-9.536 L 2006.25,-9.536 L 2006.25,-0 L 2009.83,-0 z
M 2007.54,-1.03799 L 2007.54,-8.49799 L 2009.39,-8.49799 L 2010.26,-8.43987 L 2011.02,-8.26549 L 2011.67,-7.97487
 L 2012.21,-7.56799 L 2012.64,-7.05037 L 2012.94,-6.42749 L 2013.13,-5.69937 L 2013.19,-4.866 L 2013.16,-4.29694
 L 2013.08,-3.76674 L 2012.95,-3.27544 L 2012.76,-2.823 L 2012.52,-2.4158 L 2012.24,-2.05925 L 2011.91,-1.75331
 L 2011.53,-1.49799 L 2011.12,-1.29674 L 2010.67,-1.153 L 2010.19,-1.06674 L 2009.68,-1.03799 z
M 1822.52,-0.0443726 L 1823.21,-0.17749 L 1823.81,-0.399368 L 1824.32,-0.709991 L 1824.73,-1.10086 L 1825.02,-1.5625
 L 1825.2,-2.09486 L 1825.25,-2.698 L 1825.22,-3.1568 L 1825.1,-3.57425 L 1824.91,-3.9503 L 1824.64,-4.28499
 L 1824.29,-4.56868 L 1823.89,-4.79074 L 1823.41,-4.95119 L 1822.88,-5.04999 L 1823.29,-5.17105 L 1823.65,-5.33925
 L 1823.96,-5.55455 L 1824.22,-5.81699 L 1824.43,-6.1203 L 1824.58,-6.45724 L 1824.67,-6.8278 L 1824.7,-7.23199
 L 1824.49,-8.23999 L 1823.86,-8.95999 L 1822.8,-9.392 L 1821.33,-9.536 L 1817.85,-9.536 L 1817.85,-0
 L 1821.74,-0 z
M 1819.14,-5.504 L 1819.14,-8.49799 L 1821.33,-8.49799 L 1821.8,-8.47743 L 1822.22,-8.41574 L 1822.57,-8.31293
 L 1822.86,-8.16899 L 1823.1,-7.97725 L 1823.26,-7.73099 L 1823.36,-7.43024 L 1823.4,-7.075 L 1823.36,-6.70131
 L 1823.27,-6.37924 L 1823.11,-6.10881 L 1822.88,-5.89 L 1822.59,-5.72112 L 1822.24,-5.60049 L 1821.82,-5.52812
 L 1821.33,-5.504 z
M 1819.14,-1.03799 L 1819.14,-4.49399 L 1821.57,-4.49399 L 1822.61,-4.38812 L 1823.35,-4.0705 L 1823.8,-3.54112
 L 1823.95,-2.79999 L 1823.91,-2.38824 L 1823.81,-2.03099 L 1823.64,-1.72824 L 1823.4,-1.48 L 1823.09,-1.28662
 L 1822.7,-1.1485 L 1822.22,-1.06561 L 1821.67,-1.03799 z
M 3855.87,-4.16899 L 3858.75,-0 L 3860.18,-0 L 3856.63,-5.00099 L 3859.9,-9.536 L 3858.47,-9.536
 L 3855.88,-5.793 L 3853.21,-9.536 L 3851.78,-9.536 L 3855.15,-4.95399 L 3851.5,-0 L 3852.94,-0
 z
M 4422.66,-2.17299 L 4424,-2.17299 L 4424,-3.13599 L 4422.66,-3.13599 L 4422.66,-9.536 L 4421.37,-9.536
 L 4416.99,-3.11899 L 4416.99,-2.17299 L 4421.51,-2.17299 L 4421.51,-0 L 4422.66,-0 z
M 4418.11,-3.13599 L 4418.22,-3.271 L 4418.59,-3.76999 L 4421.05,-7.35699 L 4421.1,-7.4328 L 4421.16,-7.53224
 L 4421.23,-7.6553 L 4421.39,-7.94318 L 4421.49,-8.12167 L 4421.51,-8.159 L 4421.51,-3.13599 z
M 4197.44,-1.03799 L 4195.11,-1.03799 L 4195.11,-9.536 L 4193.98,-9.536 L 4191.73,-8.00099 L 4191.73,-6.84799
 L 4193.88,-8.36899 L 4193.88,-1.03799 L 4191.45,-1.03799 L 4191.45,-0 L 4197.44,-0 z
M 4496.61,0.0739899 L 4497.28,-0.0879974 L 4497.86,-0.357986 L 4498.36,-0.735992 L 4498.75,-1.20862 L 4499.03,-1.76149
 L 4499.2,-2.39462 L 4499.26,-3.10799 L 4499.21,-3.73874 L 4499.05,-4.30699 L 4498.79,-4.81274 L 4498.42,-5.256
 L 4497.96,-5.61649 L 4497.43,-5.87399 L 4496.84,-6.02849 L 4496.16,-6.07999 L 4495.6,-6.04187 L 4495.08,-5.92749
 L 4494.61,-5.73686 L 4494.18,-5.46999 L 4494.37,-8.49799 L 4498.7,-8.49799 L 4498.7,-9.536 L 4493.26,-9.536
 L 4492.94,-4.39799 L 4494.13,-4.39799 L 4494.34,-4.57092 L 4494.56,-4.71674 L 4494.77,-4.83543 L 4494.99,-4.92699
 L 4495.21,-4.99524 L 4495.43,-5.04399 L 4495.67,-5.07324 L 4495.91,-5.08299 L 4496.37,-5.04843 L 4496.77,-4.94475
 L 4497.12,-4.77193 L 4497.43,-4.53 L 4497.67,-4.23206 L 4497.85,-3.89124 L 4497.96,-3.50755 L 4497.99,-3.08099
 L 4497.96,-2.59262 L 4497.85,-2.15948 L 4497.68,-1.78162 L 4497.43,-1.459 L 4497.13,-1.20087 L 4496.77,-1.01649
 L 4496.35,-0.905869 L 4495.89,-0.868988 L 4495.16,-0.957611 L 4494.58,-1.2235 L 4494.16,-1.66661 L 4493.89,-2.28699
 L 4492.66,-2.14499 L 4492.8,-1.62462 L 4493.03,-1.16949 L 4493.32,-0.779617 L 4493.7,-0.454987 L 4494.14,-0.199936
 L 4494.65,-0.017746 L 4495.22,0.0915527 L 4495.86,0.127991 z
M 4040.19,-1.058 L 4034.02,-1.058 L 4039.87,-8.59299 L 4039.87,-9.536 L 4033.05,-9.536 L 4033.05,-8.478
 L 4038.39,-8.478 L 4032.55,-0.969986 L 4032.55,-0 L 4040.19,-0 z
M 3946.93,-3.952 L 3950.62,-9.536 L 3949.2,-9.536 L 3946.3,-4.99699 L 3943.38,-9.536 L 3941.96,-9.536
 L 3945.64,-3.952 L 3945.64,-0 L 3946.93,-0 z
M 3728.37,-2.76775 L 3728.94,-4.81999 L 3729.3,-6.15674 L 3729.46,-6.778 L 3729.76,-8.09099 L 3729.91,-7.41324
 L 3730.04,-6.84799 L 3730.14,-6.39525 L 3730.24,-6.05499 L 3731.89,-0 L 3733.44,-0 L 3736.26,-9.536
 L 3734.91,-9.536 L 3734.11,-6.70486 L 3733.53,-4.61249 L 3733.16,-3.25887 L 3733,-2.644 L 3732.7,-1.37599
 L 3732.64,-1.13899 L 3732.52,-1.67093 L 3732.38,-2.25874 L 3732.22,-2.90244 L 3732.04,-3.60199 L 3730.38,-9.536
 L 3729.14,-9.536 L 3728.39,-6.9028 L 3727.83,-4.89624 L 3727.45,-3.51631 L 3727.25,-2.76299 L 3727.15,-2.3315
 L 3727.05,-1.91699 L 3726.96,-1.51949 L 3726.88,-1.13899 L 3726.74,-1.7368 L 3726.61,-2.32625 L 3726.46,-2.9073
 L 3726.31,-3.48 L 3724.59,-9.536 L 3723.24,-9.536 L 3726.06,-0 L 3727.61,-0 z
M 4646.73,-0.653992 L 4646.79,-1.297 L 4646.89,-1.92899 L 4647.02,-2.54999 L 4647.19,-3.16806 L 4647.4,-3.79024
 L 4647.64,-4.41655 L 4647.93,-5.047 L 4648.28,-5.74043 L 4648.75,-6.55475 L 4649.32,-7.48993 L 4650,-8.54599
 L 4650,-9.536 L 4643.67,-9.536 L 4643.67,-8.49799 L 4648.82,-8.49799 L 4647.98,-7.22025 L 4647.26,-6.019
 L 4646.67,-4.89424 L 4646.22,-3.84599 L 4645.88,-2.8485 L 4645.64,-1.875 L 4645.49,-0.925491 L 4645.44,-0
 L 4646.72,-0 z
M 3641.94,-9.536 L 3640.58,-9.536 L 3637.94,-2.82399 L 3637.37,-1.13899 L 3636.8,-2.82399 L 3634.15,-9.536
 L 3632.79,-9.536 L 3636.69,-0 L 3638.04,-0 z
M 3540.34,0.100311 L 3540.89,0.0172424 L 3541.4,-0.121185 L 3541.87,-0.314987 L 3542.3,-0.561172 L 3542.67,-0.856735
 L 3543,-1.20168 L 3543.27,-1.59599 L 3543.48,-2.03537 L 3543.64,-2.5145 L 3543.73,-3.03337 L 3543.76,-3.592
 L 3543.76,-9.536 L 3542.47,-9.536 L 3542.47,-3.668 L 3542.43,-3.03537 L 3542.29,-2.48349 L 3542.07,-2.01237
 L 3541.75,-1.62199 L 3541.36,-1.31618 L 3540.89,-1.09775 L 3540.36,-0.966675 L 3539.75,-0.922989 L 3539.15,-0.96524
 L 3538.63,-1.092 L 3538.19,-1.30324 L 3537.82,-1.599 L 3537.53,-1.9763 L 3537.32,-2.43224 L 3537.2,-2.96681
 L 3537.15,-3.57999 L 3537.15,-9.536 L 3535.86,-9.536 L 3535.86,-3.46999 L 3535.89,-2.92793 L 3535.98,-2.42474
 L 3536.13,-1.96043 L 3536.34,-1.53499 L 3536.61,-1.15355 L 3536.92,-0.820236 L 3537.29,-0.535049 L 3537.7,-0.297989
 L 3538.16,-0.111618 L 3538.65,0.0214996 L 3539.18,0.101364 L 3539.75,0.127991 z
M 1246.77,0.117798 L 1247.08,0.0872498 L 1247.38,0.0363007 L 1247.68,-0.0349884 L 1247.68,-0.936996 L 1247.47,-0.895432
 L 1247.28,-0.865738 L 1247.12,-0.847931 L 1246.99,-0.841995 L 1246.79,-0.855423 L 1246.62,-0.895737 L 1246.49,-0.962936
 L 1246.39,-1.05699 L 1246.32,-1.18437 L 1246.26,-1.35149 L 1246.23,-1.55836 L 1246.22,-1.80499 L 1246.22,-6.47198
 L 1247.56,-6.47198 L 1247.56,-7.35999 L 1246.22,-7.35999 L 1246.22,-9.02399 L 1245.41,-9.02399 L 1245.05,-7.35999
 L 1244.15,-7.35999 L 1244.15,-6.47198 L 1245,-6.47198 L 1245,-1.54399 L 1245.09,-0.8125 L 1245.36,-0.289993
 L 1245.82,0.0234985 L 1246.46,0.127991 z
M 1133.15,-3.834 L 1133.17,-4.41005 L 1133.25,-4.91524 L 1133.37,-5.34955 L 1133.54,-5.713 L 1133.77,-6
 L 1134.03,-6.20499 L 1134.34,-6.32799 L 1134.7,-6.36899 L 1134.89,-6.36475 L 1135.06,-6.35199 L 1135.21,-6.33075
 L 1135.34,-6.30099 L 1135.34,-7.42 L 1135.22,-7.44974 L 1135.1,-7.47099 L 1134.97,-7.48375 L 1134.85,-7.48799
 L 1134.53,-7.46637 L 1134.24,-7.40149 L 1134,-7.29337 L 1133.79,-7.142 L 1133.6,-6.93175 L 1133.43,-6.64699
 L 1133.27,-6.28773 L 1133.12,-5.85399 L 1133.09,-5.85399 L 1133.09,-6.04262 L 1133.08,-6.35649 L 1133.04,-7.35999
 L 1131.88,-7.35999 L 1131.9,-6.90074 L 1131.92,-6.46199 L 1131.92,-6.04375 L 1131.93,-5.646 L 1131.93,-0
 L 1133.15,-0 z
M 718.448,-4.26099 L 718.476,-4.77437 L 718.561,-5.22649 L 718.703,-5.61737 L 718.903,-5.94699 L 719.15,-6.20862
 L 719.439,-6.39549 L 719.769,-6.50761 L 720.14,-6.545 L 720.491,-6.51949 L 720.783,-6.44299 L 721.017,-6.31549
 L 721.193,-6.13699 L 721.32,-5.8918 L 721.412,-5.56424 L 721.466,-5.15431 L 721.485,-4.66199 L 721.485,-0
 L 722.692,-0 L 722.692,-4.26099 L 722.719,-4.77718 L 722.803,-5.23074 L 722.942,-5.62167 L 723.137,-5.95
 L 723.381,-6.21031 L 723.671,-6.39624 L 724.005,-6.50781 L 724.384,-6.545 L 724.735,-6.51949 L 725.028,-6.44299
 L 725.262,-6.31549 L 725.438,-6.13699 L 725.565,-5.8918 L 725.657,-5.56424 L 725.711,-5.15431 L 725.73,-4.66199
 L 725.73,-0 L 726.937,-0 L 726.937,-4.89899 L 726.905,-5.5405 L 726.81,-6.08499 L 726.652,-6.53249
 L 726.431,-6.883 L 726.14,-7.14767 L 725.773,-7.33675 L 725.33,-7.45018 L 724.811,-7.48799 L 724.441,-7.46762
 L 724.1,-7.40649 L 723.788,-7.30461 L 723.504,-7.16199 L 723.243,-6.97305 L 723.003,-6.73224 L 722.783,-6.43956
 L 722.583,-6.09499 L 722.563,-6.09499 L 722.449,-6.43387 L 722.299,-6.7235 L 722.111,-6.96387 L 721.887,-7.155
 L 721.622,-7.30067 L 721.314,-7.40474 L 720.962,-7.46718 L 720.567,-7.48799 L 720.214,-7.46887 L 719.889,-7.4115
 L 719.592,-7.31587 L 719.324,-7.18199 L 719.076,-6.9993 L 718.843,-6.75725 L 718.625,-6.45581 L 718.421,-6.09499
 L 718.401,-6.09499 L 718.382,-6.71094 L 718.353,-7.29674 L 718.346,-7.35999 L 717.193,-7.35999 L 717.21,-7.15456
 L 717.223,-6.82425 L 717.231,-6.36905 L 717.234,-5.78899 L 717.234,-0 L 718.448,-0 z
M 982.265,0.0059967 L 982.264,-0.47905 L 982.259,-0.833237 L 982.25,-1.05655 L 982.238,-1.14899 L 982.272,-1.14899
 L 982.635,-0.590302 L 983.136,-0.191238 L 983.778,0.0481873 L 984.558,0.127991 L 985.743,-0.112305 L 986.589,-0.833237
 L 987.097,-2.03481 L 987.266,-3.717 L 987.224,-4.627 L 987.098,-5.407 L 986.887,-6.05699 L 986.592,-6.577
 L 986.213,-6.97556 L 985.747,-7.26024 L 985.196,-7.43106 L 984.558,-7.48799 L 984.141,-7.46825 L 983.766,-7.409
 L 983.434,-7.31024 L 983.143,-7.172 L 982.888,-6.9913 L 982.659,-6.76524 L 982.456,-6.4938 L 982.279,-6.17699
 L 982.252,-6.17699 L 982.248,-6.36049 L 982.227,-6.81519 L 982.212,-7.07169 L 982.193,-7.29799 L 982.184,-7.35999
 L 981.004,-7.35999 L 981.022,-7.12849 L 981.035,-6.80099 L 981.043,-6.37749 L 981.045,-5.85799 L 981.045,2.87999
 L 982.265,2.87999 z
M 983.749,-0.816864 L 983.336,-0.945496 L 982.996,-1.15987 L 982.728,-1.45999 L 982.526,-1.85106 L 982.381,-2.33725
 L 982.294,-2.91855 L 982.265,-3.59499 L 982.279,-4.09056 L 982.319,-4.53725 L 982.386,-4.93506 L 982.479,-5.284
 L 982.599,-5.58705 L 982.744,-5.84724 L 982.913,-6.06456 L 983.106,-6.239 L 983.332,-6.37286 L 983.598,-6.46849
 L 983.903,-6.52586 L 984.247,-6.545 L 984.67,-6.50374 L 985.031,-6.37999 L 985.33,-6.17374 L 985.568,-5.88499
 L 985.75,-5.50069 L 985.88,-5.00674 L 985.958,-4.40318 L 985.984,-3.68999 L 985.958,-2.95818 L 985.88,-2.33974
 L 985.749,-1.83469 L 985.565,-1.44299 L 985.325,-1.1503 L 985.023,-0.941238 L 984.659,-0.815811 L 984.233,-0.773987
 z
M 909.28,0.0690613 L 909.945,-0.107742 L 910.514,-0.402435 L 910.987,-0.814987 L 911.359,-1.3485 L 911.624,-2.00499
 L 911.784,-2.78448 L 911.837,-3.687 L 911.787,-4.59712 L 911.638,-5.37949 L 911.389,-6.03412 L 911.041,-6.56099
 L 910.588,-6.96655 L 910.023,-7.25624 L 909.347,-7.43005 L 908.56,-7.48799 L 907.117,-7.25043 L 906.087,-6.53773
 L 905.469,-5.34993 L 905.263,-3.687 L 905.314,-2.81499 L 905.468,-2.05199 L 905.725,-1.39799 L 906.085,-0.852997
 L 906.545,-0.423798 L 907.105,-0.117249 L 907.762,0.0666809 L 908.519,0.127991 z
M 908.032,-0.819611 L 907.626,-0.956497 L 907.288,-1.18462 L 907.018,-1.504 L 906.811,-1.91418 L 906.663,-2.41475
 L 906.574,-3.00568 L 906.545,-3.687 L 906.575,-4.38449 L 906.665,-4.98299 L 906.815,-5.4825 L 907.025,-5.883
 L 907.302,-6.19055 L 907.654,-6.41025 L 908.08,-6.54205 L 908.581,-6.586 L 909.077,-6.54292 L 909.495,-6.41374
 L 909.837,-6.19843 L 910.102,-5.89699 L 910.3,-5.50049 L 910.441,-5 L 910.526,-4.39549 L 910.555,-3.687
 L 910.525,-2.98618 L 910.436,-2.38474 L 910.289,-1.88268 L 910.082,-1.48 L 909.806,-1.17111 L 909.451,-0.950485
 L 909.018,-0.818115 L 908.506,-0.773987 z
M 831.434,-4.26099 L 831.466,-4.76868 L 831.562,-5.21774 L 831.721,-5.60818 L 831.945,-5.93999 L 832.224,-6.20468
 L 832.55,-6.39374 L 832.922,-6.50719 L 833.342,-6.545 L 833.627,-6.53394 L 833.875,-6.50075 L 834.086,-6.44543
 L 834.261,-6.368 L 834.407,-6.26593 L 834.532,-6.13574 L 834.636,-5.97743 L 834.718,-5.79099 L 834.781,-5.57005
 L 834.825,-5.30824 L 834.852,-5.00555 L 834.861,-4.66199 L 834.861,-0 L 836.088,-0 L 836.088,-4.89899
 L 836.053,-5.54292 L 835.948,-6.08875 L 835.772,-6.53642 L 835.526,-6.88599 L 835.205,-7.14937 L 834.803,-7.33749
 L 834.319,-7.45036 L 833.754,-7.48799 L 833.359,-7.46825 L 832.998,-7.409 L 832.67,-7.31024 L 832.376,-7.172
 L 832.107,-6.98618 L 831.854,-6.74474 L 831.618,-6.44768 L 831.399,-6.09499 L 831.379,-6.09499 L 831.36,-6.71094
 L 831.332,-7.29674 L 831.325,-7.35999 L 830.172,-7.35999 L 830.19,-7.15456 L 830.203,-6.82425 L 830.21,-6.36905
 L 830.213,-5.78899 L 830.213,-0 L 831.434,-0 z
M 1062.34,-5.42599 L 1062.35,-6.15012 L 1062.36,-6.72449 L 1062.37,-7.14912 L 1062.39,-7.424 L 1061.22,-7.424
 L 1061.2,-7.37894 L 1061.19,-7.27675 L 1061.18,-7.11743 L 1061.16,-6.90099 L 1061.14,-6.48424 L 1061.14,-6.33005
 L 1061.14,-6.21199 L 1061.12,-6.21199 L 1060.93,-6.53055 L 1060.71,-6.80025 L 1060.47,-7.02106 L 1060.21,-7.19299
 L 1059.92,-7.32205 L 1059.59,-7.41425 L 1059.23,-7.46956 L 1058.83,-7.48799 L 1057.64,-7.24786 L 1056.8,-6.5275
 L 1056.29,-5.32687 L 1056.12,-3.646 L 1056.16,-2.76143 L 1056.29,-1.99474 L 1056.49,-1.34593 L 1056.78,-0.814987
 L 1057.15,-0.402435 L 1057.62,-0.107742 L 1058.18,0.0690613 L 1058.83,0.127991 L 1059.24,0.108673 L 1059.61,0.0507355
 L 1059.94,-0.0458069 L 1060.23,-0.181 L 1060.49,-0.361557 L 1060.73,-0.594238 L 1060.94,-0.879059 L 1061.14,-1.21599
 L 1061.15,-1.21599 L 1061.12,-0.10199 L 1061.12,2.87999 L 1062.34,2.87999 z
M 1058.72,-0.856552 L 1058.35,-0.981247 L 1058.05,-1.18906 L 1057.82,-1.48 L 1057.64,-1.86768 L 1057.51,-2.36475
 L 1057.43,-2.97118 L 1057.4,-3.687 L 1057.43,-4.39262 L 1057.51,-4.9955 L 1057.63,-5.49562 L 1057.81,-5.89299
 L 1058.05,-6.19618 L 1058.35,-6.41273 L 1058.72,-6.54268 L 1059.15,-6.586 L 1059.63,-6.54268 L 1060.04,-6.41273
 L 1060.38,-6.19618 L 1060.65,-5.89299 L 1060.86,-5.50069 L 1061,-5.01575 L 1061.09,-4.43819 L 1061.12,-3.76799
 L 1061.09,-3.0773 L 1061,-2.47824 L 1060.86,-1.97081 L 1060.65,-1.55499 L 1060.38,-1.23125 L 1060.04,-1
 L 1059.63,-0.861237 L 1059.14,-0.814987 z
M 299.096,0.0191193 L 299.951,-0.307495 L 300.595,-0.851868 L 301.03,-1.614 L 299.959,-1.92 L 299.854,-1.68512
 L 299.711,-1.4715 L 299.529,-1.27911 L 299.309,-1.10799 L 299.049,-0.96756 L 298.749,-0.867249 L 298.41,-0.807053
 L 298.032,-0.786987 L 297.558,-0.829742 L 297.145,-0.957993 L 296.792,-1.17174 L 296.5,-1.47099 L 296.27,-1.84943
 L 296.107,-2.29974 L 296.008,-2.82193 L 295.976,-3.41599 L 301.227,-3.41599 L 301.227,-3.57899 L 301.024,-5.28918
 L 300.416,-6.51074 L 299.402,-7.24368 L 297.984,-7.48799 L 297.237,-7.42731 L 296.582,-7.24524 L 296.019,-6.9418
 L 295.547,-6.517 L 295.173,-5.97893 L 294.907,-5.33475 L 294.747,-4.58443 L 294.694,-3.728 L 294.747,-2.8295
 L 294.907,-2.049 L 295.173,-1.38649 L 295.547,-0.841995 L 296.022,-0.417618 L 296.594,-0.114487 L 297.264,0.0673676
 L 298.032,0.127991 z
M 295.989,-4.35199 L 296.039,-4.84512 L 296.15,-5.28249 L 296.32,-5.66412 L 296.551,-5.98999 L 296.834,-6.25075
 L 297.164,-6.437 L 297.54,-6.54874 L 297.963,-6.586 L 298.395,-6.55255 L 298.774,-6.45224 L 299.1,-6.28505
 L 299.372,-6.05099 L 299.593,-5.74455 L 299.765,-5.35924 L 299.889,-4.89505 L 299.965,-4.35199 z
M 155.187,0.0880585 L 155.696,-0.0317383 L 156.154,-0.23143 L 156.561,-0.510986 L 156.904,-0.857559 L 157.169,-1.25824
 L 157.357,-1.71306 L 157.467,-2.22198 L 156.233,-2.30399 L 156.161,-1.95418 L 156.046,-1.65274 L 155.889,-1.39967
 L 155.689,-1.19499 L 155.456,-1.03749 L 155.195,-0.924988 L 154.908,-0.857498 L 154.593,-0.834991 L 154.154,-0.87912
 L 153.774,-1.01149 L 153.453,-1.23212 L 153.191,-1.54099 L 152.988,-1.94156 L 152.843,-2.43724 L 152.756,-3.02806
 L 152.727,-3.71399 L 152.755,-4.42281 L 152.837,-5.02124 L 152.973,-5.50931 L 153.164,-5.88699 L 153.417,-6.16917
 L 153.737,-6.37074 L 154.125,-6.49168 L 154.579,-6.532 L 154.918,-6.50919 L 155.215,-6.44073 L 155.471,-6.32668
 L 155.686,-6.16699 L 155.863,-5.96906 L 156.003,-5.73924 L 156.106,-5.47755 L 156.172,-5.18399 L 157.426,-5.28
 L 157.296,-5.76825 L 157.097,-6.20099 L 156.828,-6.57825 L 156.489,-6.89999 L 156.092,-7.15724 L 155.647,-7.34099
 L 155.154,-7.45125 L 154.613,-7.48799 L 153.895,-7.42712 L 153.264,-7.24449 L 152.723,-6.94012 L 152.269,-6.51399
 L 151.912,-5.97206 L 151.657,-5.32024 L 151.503,-4.55855 L 151.452,-3.687 L 151.503,-2.80931 L 151.656,-2.04324
 L 151.91,-1.38881 L 152.266,-0.845993 L 152.719,-0.419861 L 153.263,-0.115494 L 153.899,0.0671234 L 154.626,0.127991
 z
M 3.24467,0.106186 L 3.63974,0.040741 L 4.00117,-0.0682983 L 4.32899,-0.220993 L 4.63087,-0.426743 L 4.9135,-0.693985
 L 5.17686,-1.02274 L 5.42099,-1.41299 L 5.46199,-1.41299 L 5.49924,-1.05724 L 5.56999,-0.751999 L 5.67424,-0.497238
 L 5.812,-0.292999 L 5.98962,-0.13681 L 6.21349,-0.025238 L 6.48361,0.041687 L 6.79999,0.0639954 L 7.03975,0.0571747
 L 7.27699,0.0367432 L 7.51175,0.00268555 L 7.74399,-0.0449982 L 7.74399,-0.803986 L 7.63493,-0.783432 L 7.53174,-0.768738
 L 7.43443,-0.759933 L 7.34299,-0.756989 L 7.15862,-0.774185 L 7.00648,-0.825745 L 6.88661,-0.911682 L 6.799,-1.032
 L 6.73643,-1.18631 L 6.69174,-1.37424 L 6.66493,-1.59581 L 6.65599,-1.851 L 6.65599,-5.01599 L 6.61218,-5.58156
 L 6.48074,-6.07625 L 6.26167,-6.50006 L 5.95499,-6.853 L 5.56212,-7.1308 L 5.0835,-7.32924 L 4.51912,-7.4483
 L 3.86899,-7.48799 L 2.69531,-7.36324 L 1.81224,-6.989 L 1.2198,-6.36525 L 0.917999,-5.49199 L 2.19299,-5.37599
 L 2.24918,-5.66443 L 2.34274,-5.91074 L 2.47368,-6.11493 L 2.642,-6.27699 L 2.85762,-6.40036 L 3.12949,-6.48849
 L 3.45761,-6.54137 L 3.842,-6.55899 L 4.22324,-6.53468 L 4.54999,-6.46175 L 4.82224,-6.34018 L 5.03999,-6.17
 L 5.20712,-5.94398 L 5.32649,-5.65399 L 5.39812,-5.29999 L 5.422,-4.88199 L 5.422,-4.48 L 3.769,-4.45299
 L 2.98962,-4.39693 L 2.32549,-4.26974 L 1.77661,-4.07143 L 1.34299,-3.80199 L 1.01443,-3.46399 L 0.779739,-3.06
 L 0.638931,-2.59 L 0.591995,-2.05399 L 0.626801,-1.57306 L 0.731247,-1.14624 L 0.905304,-0.77356 L 1.14899,-0.454987
 L 1.46243,-0.199936 L 1.84474,-0.017746 L 2.29593,0.0915527 L 2.81599,0.127991 z
M 2.81068,-0.807312 L 2.56274,-0.86824 L 2.34918,-0.969803 L 2.17,-1.112 L 2.02869,-1.29149 L 1.92775,-1.50499
 L 1.86719,-1.75249 L 1.84698,-2.034 L 1.86186,-2.2953 L 1.90649,-2.53024 L 1.98087,-2.7388 L 2.08499,-2.92099
 L 2.21742,-3.07944 L 2.37575,-3.21574 L 2.55994,-3.32993 L 2.76999,-3.422 L 3.01918,-3.49419 L 3.32074,-3.54774
 L 3.67468,-3.58269 L 4.08099,-3.599 L 5.422,-3.62599 L 5.422,-3.02299 L 5.40306,-2.74387 L 5.34624,-2.46849
 L 5.25156,-2.19687 L 5.11899,-1.92899 L 4.95361,-1.67719 L 4.7605,-1.45374 L 4.53961,-1.25868 L 4.29099,-1.092
 L 4.01962,-0.958557 L 3.72949,-0.863235 L 3.42062,-0.806061 L 3.09299,-0.786987 z
M 1180.28,0.0929871 L 1180.87,-0.0119934 L 1181.38,-0.186996 L 1181.82,-0.431992 L 1182.16,-0.741562 L 1182.41,-1.11024
 L 1182.56,-1.53806 L 1182.6,-2.02499 L 1182.6,-2.22874 L 1182.57,-2.42099 L 1182.53,-2.60175 L 1182.47,-2.771
 L 1182.39,-2.92969 L 1182.3,-3.07874 L 1182.2,-3.21819 L 1182.08,-3.34799 L 1181.95,-3.47018 L 1181.79,-3.58675
 L 1181.61,-3.69768 L 1181.4,-3.80299 L 1181.16,-3.90831 L 1180.84,-4.01825 L 1180.45,-4.13281 L 1180,-4.252
 L 1179.53,-4.37024 L 1179.15,-4.47499 L 1178.85,-4.56624 L 1178.65,-4.644 L 1178.5,-4.71875 L 1178.37,-4.80099
 L 1178.26,-4.89075 L 1178.16,-4.98799 L 1178.09,-5.09618 L 1178.04,-5.21774 L 1178.01,-5.35268 L 1178,-5.50099
 L 1178.03,-5.737 L 1178.1,-5.94099 L 1178.22,-6.11299 L 1178.4,-6.25299 L 1178.62,-6.36192 L 1178.9,-6.43974
 L 1179.24,-6.48643 L 1179.63,-6.502 L 1179.98,-6.48569 L 1180.3,-6.43674 L 1180.58,-6.35518 L 1180.83,-6.241
 L 1181.03,-6.09624 L 1181.19,-5.92299 L 1181.3,-5.72124 L 1181.38,-5.491 L 1182.47,-5.627 L 1182.35,-6.06581
 L 1182.15,-6.44025 L 1181.89,-6.75031 L 1181.56,-6.99599 L 1181.17,-7.18324 L 1180.72,-7.31699 L 1180.21,-7.39725
 L 1179.63,-7.424 L 1178.98,-7.39131 L 1178.42,-7.29324 L 1177.93,-7.12981 L 1177.53,-6.90099 L 1177.22,-6.60974
 L 1176.99,-6.25899 L 1176.86,-5.84874 L 1176.81,-5.379 L 1176.83,-5.11955 L 1176.88,-4.88124 L 1176.96,-4.66406
 L 1177.07,-4.46799 L 1177.2,-4.28943 L 1177.37,-4.12474 L 1177.55,-3.97392 L 1177.76,-3.83699 L 1178.03,-3.70636
 L 1178.36,-3.57449 L 1178.78,-3.44136 L 1179.27,-3.30699 L 1180.15,-3.077 L 1180.46,-2.98355 L 1180.73,-2.87823
 L 1180.94,-2.76105 L 1181.12,-2.63199 L 1181.25,-2.48686 L 1181.34,-2.32149 L 1181.4,-2.13586 L 1181.42,-1.92999
 L 1181.39,-1.66556 L 1181.31,-1.43625 L 1181.17,-1.24205 L 1180.98,-1.08299 L 1180.74,-0.95961 L 1180.42,-0.87149
 L 1180.05,-0.818619 L 1179.61,-0.800995 L 1179.2,-0.818176 L 1178.84,-0.869736 L 1178.52,-0.955673 L 1178.25,-1.07599
 L 1178.02,-1.23318 L 1177.84,-1.42975 L 1177.7,-1.66568 L 1177.6,-1.94099 L 1176.52,-1.73099 L 1176.67,-1.28412
 L 1176.88,-0.900497 L 1177.15,-0.580124 L 1177.49,-0.322998 L 1177.9,-0.125687 L 1178.4,0.0152435 L 1178.97,0.0998077
 L 1179.61,0.127991 z
M 412.29,2.68637 L 413.253,2.1055 L 413.83,1.13737 L 414.023,-0.217987 L 414.023,-5.838 L 414.025,-6.36624
 L 414.033,-6.79599 L 414.046,-7.12724 L 414.064,-7.35999 L 412.904,-7.35999 L 412.89,-7.306 L 412.877,-7.19299
 L 412.863,-7.021 L 412.85,-6.78999 L 412.83,-6.3465 L 412.824,-6.18286 L 412.823,-6.058 L 412.809,-6.058
 L 412.636,-6.36719 L 412.43,-6.63875 L 412.192,-6.87268 L 411.921,-7.06898 L 411.62,-7.2243 L 411.294,-7.33524
 L 410.942,-7.40181 L 410.564,-7.424 L 409.911,-7.36624 L 409.347,-7.19299 L 408.871,-6.90424 L 408.485,-6.5
 L 408.186,-5.97487 L 407.973,-5.32249 L 407.844,-4.54286 L 407.802,-3.63599 L 407.842,-2.7428 L 407.961,-1.97725
 L 408.16,-1.33931 L 408.438,-0.828995 L 408.801,-0.438309 L 409.253,-0.159241 L 409.796,0.00817871 L 410.428,0.0639954
 L 410.82,0.0418091 L 411.187,-0.0247498 L 411.527,-0.135681 L 411.843,-0.290985 L 412.129,-0.490311 L 412.383,-0.733246
 L 412.605,-1.01981 L 412.795,-1.34999 L 412.809,-1.34999 L 412.809,-0.174988 L 412.694,0.755112 L 412.351,1.41949
 L 411.778,1.81812 L 410.977,1.95099 L 410.653,1.93381 L 410.361,1.88225 L 410.103,1.79631 L 409.877,1.67599
 L 409.686,1.52431 L 409.533,1.34325 L 409.416,1.1328 L 409.336,0.89299 L 408.108,1.06898 L 408.242,1.47818
 L 408.439,1.83774 L 408.701,2.14767 L 409.026,2.40799 L 409.413,2.61449 L 409.862,2.76199 L 410.372,2.85049
 L 410.943,2.87999 z
M 410.39,-0.878937 L 410.01,-1.00174 L 409.702,-1.20644 L 409.465,-1.493 L 409.289,-1.87375 L 409.164,-2.35999
 L 409.089,-2.95174 L 409.064,-3.64899 L 409.091,-4.35362 L 409.171,-4.95349 L 409.305,-5.44862 L 409.493,-5.83899
 L 409.739,-6.13474 L 410.05,-6.34599 L 410.424,-6.47275 L 410.862,-6.515 L 411.137,-6.49362 L 411.397,-6.42949
 L 411.642,-6.32262 L 411.873,-6.17299 L 412.083,-5.98349 L 412.269,-5.756 L 412.429,-5.49049 L 412.564,-5.187
 L 412.671,-4.849 L 412.748,-4.48 L 412.793,-4.07999 L 412.809,-3.64899 L 412.793,-3.22842 L 412.748,-2.83774
 L 412.671,-2.47693 L 412.564,-2.146 L 412.428,-1.84837 L 412.268,-1.58749 L 412.081,-1.36337 L 411.869,-1.17599
 L 411.636,-1.02812 L 411.387,-0.922485 L 411.122,-0.859116 L 410.841,-0.837997 z
M 589.105,2.85068 L 589.435,2.76274 L 589.714,2.61618 L 589.942,2.411 L 590.12,2.14087 L 590.247,1.7995
 L 590.324,1.38687 L 590.349,0.903 L 590.349,-7.35999 L 589.128,-7.35999 L 589.128,0.720993 L 589.116,1.04555
 L 589.081,1.31224 L 589.021,1.52106 L 588.938,1.672 L 588.826,1.77917 L 588.68,1.85574 L 588.499,1.90167
 L 588.283,1.91699 L 587.864,1.87599 L 587.864,2.81898 L 588.045,2.84567 L 588.249,2.86475 L 588.475,2.87617
 L 588.724,2.87999 z
M 560.222,-7.35999 L 559.001,-7.35999 L 559.001,-0 L 560.222,-0 z
M 1428.88,-2.17969 L 1429.3,-3.81874 L 1429.58,-4.91718 L 1429.71,-5.47499 L 1429.82,-5.98349 L 1429.9,-6.35699
 L 1430.15,-5.20699 L 1431.43,-0 L 1432.85,-0 L 1434.96,-7.35999 L 1433.76,-7.35999 L 1432.37,-1.95599
 L 1432.16,-1.00999 L 1431.84,-2.30299 L 1430.56,-7.35999 L 1429.25,-7.35999 L 1427.71,-1.51399 L 1427.6,-1.00999
 L 1427.49,-1.53824 L 1427.4,-1.939 L 1427.34,-2.21225 L 1426.06,-7.35999 L 1424.85,-7.35999 L 1426.91,-0
 L 1428.32,-0 z
M 1363.99,-7.35999 L 1362.69,-7.35999 L 1361.01,-2.55499 L 1360.75,-1.752 L 1360.51,-0.955994 L 1360.2,-2.02974
 L 1360.1,-2.36618 L 1360.04,-2.56898 L 1358.41,-7.35999 L 1357.11,-7.35999 L 1359.79,-0 L 1361.23,-0
 z
M 1285.26,0.108307 L 1285.62,0.0492401 L 1285.95,-0.0491791 L 1286.25,-0.186996 L 1286.52,-0.372742 L 1286.77,-0.613998
 L 1287,-0.910736 L 1287.22,-1.26299 L 1287.24,-1.26299 L 1287.26,-0.647995 L 1287.29,-0.0629883 L 1287.3,-0
 L 1288.45,-0 L 1288.43,-0.205429 L 1288.42,-0.535736 L 1288.41,-0.990936 L 1288.41,-1.571 L 1288.41,-7.35999
 L 1287.19,-7.35999 L 1287.19,-3.099 L 1287.16,-2.59131 L 1287.06,-2.14224 L 1286.9,-1.7518 L 1286.68,-1.42
 L 1286.4,-1.1553 L 1286.07,-0.966248 L 1285.7,-0.852798 L 1285.28,-0.814987 L 1285,-0.825989 L 1284.75,-0.858994
 L 1284.54,-0.913986 L 1284.36,-0.990997 L 1284.21,-1.09349 L 1284.09,-1.224 L 1283.99,-1.38249 L 1283.9,-1.56898
 L 1283.84,-1.78993 L 1283.8,-2.05174 L 1283.77,-2.35443 L 1283.76,-2.698 L 1283.76,-7.35999 L 1282.53,-7.35999
 L 1282.53,-2.461 L 1282.57,-1.81699 L 1282.68,-1.271 L 1282.85,-0.822998 L 1283.1,-0.472992 L 1283.42,-0.210052
 L 1283.82,-0.0222473 L 1284.3,0.0904236 L 1284.87,0.127991 z
M 1664.72,-0.942993 L 1660.44,-0.942993 L 1664.58,-6.42999 L 1664.58,-7.35999 L 1659.23,-7.35999 L 1659.23,-6.41699
 L 1663.13,-6.41699 L 1659,-0.928986 L 1659,-0 L 1664.72,-0 z
M 1526.29,-3.01999 L 1528.28,-0 L 1529.64,-0 L 1526.98,-3.79599 L 1529.48,-7.35999 L 1528.12,-7.35999
 L 1526.29,-4.49599 L 1524.44,-7.35999 L 1523.09,-7.35999 L 1525.6,-3.782 L 1522.97,-0 L 1524.29,-0
 z
M 1592.22,2.86243 L 1592.5,2.80974 L 1592.76,2.72192 L 1593.01,2.599 L 1593.25,2.44025 L 1593.47,2.245
 L 1593.68,2.01324 L 1593.89,1.745 L 1594.09,1.42105 L 1594.3,1.02225 L 1594.51,0.548553 L 1594.74,-0
 L 1597.57,-7.35999 L 1596.28,-7.35999 L 1594.67,-2.67 L 1594.19,-1.32899 L 1594.16,-1.41475 L 1594.11,-1.584
 L 1593.64,-2.95599 L 1593.52,-3.28899 L 1591.96,-7.35999 L 1590.66,-7.35999 L 1593.58,-0.0339966 L 1593.47,0.256989
 L 1593.1,0.989365 L 1592.68,1.5125 L 1592.2,1.82637 L 1591.65,1.931 L 1591.5,1.92844 L 1591.35,1.92075
 L 1591.21,1.90793 L 1591.08,1.89 L 1591.08,2.80499 L 1591.26,2.8378 L 1591.46,2.86124 L 1591.68,2.87531
 L 1591.92,2.87999 z
M 4948.67,-4.224 L 4945.29,-4.224 L 4945.29,-3.13899 L 4948.67,-3.13899 z
M 4877.15,1.85599 L 4869.04,1.85599 L 4869.04,2.73799 L 4877.15,2.73799 z
" stroke="black" fill="lightgray" stroke-width="0.5"/></svg>
